<svg width="1600" height="900" viewBox="0 0 1600 900" fill="none" xmlns="http://www.w3.org/2000/svg">
  <defs>
    <linearGradient id="bg" x1="147" y1="31" x2="1475" y2="811" gradientUnits="userSpaceOnUse">
      <stop stop-color="#F8F0E2"/>
      <stop offset="0.47" stop-color="#FBF7F0"/>
      <stop offset="1" stop-color="#EEF5F5"/>
    </linearGradient>
    <radialGradient id="washA" cx="0" cy="0" r="1" gradientUnits="userSpaceOnUse" gradientTransform="translate(1322 163) rotate(138.946) scale(376.825 323.266)">
      <stop stop-color="#F4B860" stop-opacity="0.45"/>
      <stop offset="1" stop-color="#F4B860" stop-opacity="0"/>
    </radialGradient>
    <radialGradient id="washB" cx="0" cy="0" r="1" gradientUnits="userSpaceOnUse" gradientTransform="translate(204 732) rotate(-21.8276) scale(515.174 259.016)">
      <stop stop-color="#0F7B7B" stop-opacity="0.22"/>
      <stop offset="1" stop-color="#0F7B7B" stop-opacity="0"/>
    </radialGradient>
    <filter id="shadow" x="793" y="95" width="635" height="625" filterUnits="userSpaceOnUse" color-interpolation-filters="sRGB">
      <feFlood flood-opacity="0" result="BackgroundImageFix"/>
      <feColorMatrix in="SourceAlpha" type="matrix" values="0 0 0 0 0 0 0 0 0 0 0 0 0 0 0 0 0 0 127 0" result="hardAlpha"/>
      <feOffset dy="28"/>
      <feGaussianBlur stdDeviation="22"/>
      <feComposite in2="hardAlpha" operator="out"/>
      <feColorMatrix type="matrix" values="0 0 0 0 0.0941176 0 0 0 0 0.133333 0 0 0 0 0.180392 0 0 0 0.12 0"/>
      <feBlend mode="normal" in2="BackgroundImageFix" result="effect1_dropShadow_0_1"/>
      <feBlend mode="normal" in="SourceGraphic" in2="effect1_dropShadow_0_1" result="shape"/>
    </filter>
  </defs>
  <rect width="1600" height="900" rx="54" fill="url(#bg)"/>
  <rect x="34" y="32" width="1532" height="836" rx="42" stroke="white" stroke-opacity="0.56" stroke-width="2"/>
  <path d="M0 0H1600V900H0V0Z" fill="url(#washA)"/>
  <path d="M0 0H1600V900H0V0Z" fill="url(#washB)"/>
  <g opacity="0.2">
    <path d="M78 0V900" stroke="#18222E"/>
    <path d="M170 0V900" stroke="#18222E"/>
    <path d="M262 0V900" stroke="#18222E"/>
    <path d="M354 0V900" stroke="#18222E"/>
    <path d="M446 0V900" stroke="#18222E"/>
    <path d="M538 0V900" stroke="#18222E"/>
    <path d="M630 0V900" stroke="#18222E"/>
    <path d="M722 0V900" stroke="#18222E"/>
    <path d="M814 0V900" stroke="#18222E"/>
    <path d="M906 0V900" stroke="#18222E"/>
    <path d="M998 0V900" stroke="#18222E"/>
    <path d="M1090 0V900" stroke="#18222E"/>
    <path d="M1182 0V900" stroke="#18222E"/>
    <path d="M1274 0V900" stroke="#18222E"/>
    <path d="M1366 0V900" stroke="#18222E"/>
    <path d="M1458 0V900" stroke="#18222E"/>
    <path d="M0 88H1600" stroke="#18222E"/>
    <path d="M0 180H1600" stroke="#18222E"/>
    <path d="M0 272H1600" stroke="#18222E"/>
    <path d="M0 364H1600" stroke="#18222E"/>
    <path d="M0 456H1600" stroke="#18222E"/>
    <path d="M0 548H1600" stroke="#18222E"/>
    <path d="M0 640H1600" stroke="#18222E"/>
    <path d="M0 732H1600" stroke="#18222E"/>
    <path d="M0 824H1600" stroke="#18222E"/>
  </g>
  <rect x="74" y="80" width="660" height="740" rx="40" fill="#FFFCF7" fill-opacity="0.82" stroke="white" stroke-opacity="0.72"/>
  <text fill="#084C61" font-family="IBM Plex Sans JP, sans-serif" font-size="26" font-weight="700" letter-spacing="0.24em">
    <tspan x="126" y="156">SSH / PHYSICS / MATH / PYTHON</tspan>
  </text>
  <text fill="#18222E" font-family="Shippori Mincho, serif" font-size="84" font-weight="700">
    <tspan x="122" y="276">SSH課題研究を</tspan>
    <tspan x="122" y="378">本格サポート</tspan>
  </text>
  <text fill="#596474" font-family="IBM Plex Sans JP, sans-serif" font-size="31" font-weight="500">
    <tspan x="126" y="466">テーマ設計から理論整理、Python支援、発表改善まで。</tspan>
    <tspan x="126" y="512">ただ教えるだけでなく、研究として成立させるところまで伴走。</tspan>
  </text>
  <rect x="124" y="572" width="218" height="68" rx="34" fill="#0F7B7B"/>
  <text fill="white" font-family="IBM Plex Sans JP, sans-serif" font-size="26" font-weight="700">
    <tspan x="166" y="615">研究を最後まで支援</tspan>
  </text>
  <rect x="124" y="676" width="170" height="54" rx="27" fill="white" fill-opacity="0.74" stroke="#DFD8CB"/>
  <text fill="#084C61" font-family="IBM Plex Sans JP, sans-serif" font-size="22" font-weight="700">
    <tspan x="153" y="711">物理・数学</tspan>
  </text>
  <rect x="308" y="676" width="125" height="54" rx="27" fill="white" fill-opacity="0.74" stroke="#DFD8CB"/>
  <text fill="#084C61" font-family="IBM Plex Sans JP, sans-serif" font-size="22" font-weight="700">
    <tspan x="339" y="711">Python</tspan>
  </text>
  <rect x="447" y="676" width="160" height="54" rx="27" fill="white" fill-opacity="0.74" stroke="#DFD8CB"/>
  <text fill="#084C61" font-family="IBM Plex Sans JP, sans-serif" font-size="22" font-weight="700">
    <tspan x="481" y="711">発表サポート</tspan>
  </text>
  <g filter="url(#shadow)">
    <rect x="837" y="111" width="547" height="537" rx="42" fill="#FFF9F0" fill-opacity="0.9"/>
    <rect x="881" y="151" width="459" height="148" rx="28" fill="white" fill-opacity="0.82" stroke="#E4DDD1"/>
    <text fill="#084C61" font-family="IBM Plex Sans JP, sans-serif" font-size="24" font-weight="700">
      <tspan x="919" y="205">設計から発表まで</tspan>
    </text>
    <text fill="#18222E" font-family="IBM Plex Sans JP, sans-serif" font-size="52" font-weight="700">
      <tspan x="919" y="270">研究を一気通貫で整理</tspan>
    </text>
    <rect x="883" y="350" width="197" height="114" rx="24" fill="white" fill-opacity="0.82" stroke="#E4DDD1"/>
    <text fill="#084C61" font-family="IBM Plex Sans JP, sans-serif" font-size="19" font-weight="700">
      <tspan x="917" y="395">テーマ設計</tspan>
    </text>
    <text fill="#596474" font-family="IBM Plex Sans JP, sans-serif" font-size="17" font-weight="500">
      <tspan x="917" y="430">実現可能性と</tspan>
      <tspan x="917" y="454">面白さを両立</tspan>
    </text>
    <rect x="1100" y="350" width="240" height="114" rx="24" fill="white" fill-opacity="0.82" stroke="#E4DDD1"/>
    <text fill="#084C61" font-family="IBM Plex Sans JP, sans-serif" font-size="19" font-weight="700">
      <tspan x="1134" y="395">理論整理</tspan>
    </text>
    <text fill="#596474" font-family="IBM Plex Sans JP, sans-serif" font-size="17" font-weight="500">
      <tspan x="1134" y="430">数式の意味を</tspan>
      <tspan x="1134" y="454">説明できる粒度へ</tspan>
    </text>
    <path d="M897 557C950.04 505.93 1002.32 497.643 1055.5 544.5C1087.98 573.106 1141.18 635.952 1221 558C1266.79 513.275 1302.75 474.558 1332 444" stroke="#0F7B7B" stroke-width="10" stroke-linecap="round"/>
    <path d="M897 611C950.5 629 987.5 624 1032 572C1091.43 502.514 1161.26 495.724 1224 548.5C1256.08 575.489 1292 615 1325.5 648" stroke="#F4B860" stroke-width="10" stroke-linecap="round"/>
    <circle cx="897" cy="557" r="13" fill="#084C61"/>
    <circle cx="1055" cy="544" r="13" fill="#0F7B7B"/>
    <circle cx="1221" cy="558" r="13" fill="#0F7B7B"/>
    <circle cx="1332" cy="444" r="13" fill="#084C61"/>
    <circle cx="897" cy="611" r="13" fill="#C68425"/>
    <circle cx="1032" cy="572" r="13" fill="#F4B860"/>
    <circle cx="1224" cy="548" r="13" fill="#F4B860"/>
    <circle cx="1325.5" cy="648" r="13" fill="#C68425"/>
  </g>
  <rect x="978" y="681" width="280" height="70" rx="35" fill="#084C61" fill-opacity="0.1" stroke="#084C61" stroke-opacity="0.16"/>
  <text fill="#084C61" font-family="IBM Plex Sans JP, sans-serif" font-size="24" font-weight="700">
    <tspan x="1028" y="725">Reader Space</tspan>
  </text>
</svg>