<svg xmlns="http://www.w3.org/2000/svg" viewBox="0 0 640 360" aria-hidden="true">
    <rect x="16" y="16" width="608" height="328" rx="28" fill="rgba(6,16,29,0.98)" stroke="rgba(255,255,255,0.08)"/>

    <g transform="translate(56,52)">
        <text x="0" y="18" fill="rgba(247,239,225,0.92)" font-family="Shippori Mincho, serif" font-size="20">1. 通常の時空図</text>
        <line x1="72" y1="208" x2="72" y2="34" stroke="rgba(255,255,255,0.5)" stroke-width="2"/>
        <line x1="8" y1="136" x2="160" y2="136" stroke="rgba(255,255,255,0.5)" stroke-width="2"/>
        <line x1="72" y1="136" x2="136" y2="72" stroke="rgba(125,179,255,0.95)" stroke-width="3" stroke-linecap="round"/>
        <line x1="72" y1="136" x2="8" y2="72" stroke="rgba(125,179,255,0.95)" stroke-width="3" stroke-linecap="round"/>
        <polygon points="72,136 102,106 42,106" fill="rgba(125,179,255,0.18)"/>
        <text x="80" y="42" fill="rgba(247,239,225,0.82)" font-family="IBM Plex Sans JP, sans-serif" font-size="14">t</text>
        <text x="148" y="130" fill="rgba(247,239,225,0.82)" font-family="IBM Plex Sans JP, sans-serif" font-size="14">x</text>
        <text x="2" y="248" fill="rgba(247,239,225,0.72)" font-family="IBM Plex Sans JP, sans-serif" font-size="13">光を 45° に保つ</text>
    </g>

    <!-- <g transform="translate(222,156)">
        <line x1="0" y1="0" x2="70" y2="0" stroke="rgba(125,179,255,0.92)" stroke-width="4" stroke-linecap="round"/>
        <polygon points="70,0 56,-8 56,8" fill="rgba(125,179,255,0.92)"/>
        <text x="4" y="-14" fill="rgba(247,239,225,0.76)" font-family="IBM Plex Sans JP, sans-serif" font-size="13">u, v と arctan</text>
    </g> -->

    <g transform="translate(290,48)">
        <text x="54" y="18" text-anchor="middle" fill="rgba(247,239,225,0.92)" font-family="Shippori Mincho, serif" font-size="20">2. ダイヤ形に圧縮</text>
        <g transform="translate(0,20)">
            <polygon points="54,34 122,124 54,214 -14,124" fill="rgba(125,179,255,0.14)"/>
            <line x1="54" y1="34" x2="122" y2="124" stroke="rgba(255,255,255,0.66)" stroke-width="2.4" stroke-linecap="round"/>
            <line x1="122" y1="124" x2="54" y2="214" stroke="rgba(255,255,255,0.66)" stroke-width="2.4" stroke-linecap="round"/>
            <line x1="54" y1="214" x2="-14" y2="124" stroke="rgba(255,255,255,0.66)" stroke-width="2.4" stroke-linecap="round"/>
            <line x1="-14" y1="124" x2="54" y2="34" stroke="rgba(255,255,255,0.66)" stroke-width="2.4" stroke-linecap="round"/>
            <text x="54" y="20" text-anchor="middle" fill="rgba(247,239,225,0.86)" font-family="IBM Plex Sans JP, sans-serif" font-size="14">i+</text>
            <text x="54" y="234" text-anchor="middle" fill="rgba(247,239,225,0.86)" font-family="IBM Plex Sans JP, sans-serif" font-size="14">i-</text>
            <text x="-40" y="128" text-anchor="middle" fill="rgba(247,239,225,0.86)" font-family="IBM Plex Sans JP, sans-serif" font-size="14">I-</text>
            <text x="148" y="128" text-anchor="middle" fill="rgba(247,239,225,0.86)" font-family="IBM Plex Sans JP, sans-serif" font-size="14">I+</text>
            <text x="54" y="266" text-anchor="middle" fill="rgba(247,239,225,0.72)" font-family="IBM Plex Sans JP, sans-serif" font-size="13">無限遠が境界になる</text>
        </g>
    </g>

    <!-- <g transform="translate(470,156)">
        <line x1="0" y1="0" x2="70" y2="0" stroke="rgba(243,178,106,0.92)" stroke-width="4" stroke-linecap="round"/>
        <polygon points="70,0 56,-8 56,8" fill="rgba(243,178,106,0.92)"/>
        <text x="10" y="-14" fill="rgba(247,239,225,0.76)" font-family="IBM Plex Sans JP, sans-serif" font-size="13">地平線と特異点を追加</text>
    </g> -->

    <g transform="translate(494,50)">
        <text x="54" y="18" text-anchor="middle" fill="rgba(247,239,225,0.92)" font-family="Shippori Mincho, serif" font-size="20">3. ブラックホール図</text>
        <polygon points="54,34 118,124 54,214 -10,124" fill="rgba(125,179,255,0.08)"/>
        <line x1="54" y1="34" x2="118" y2="124" stroke="rgba(255,255,255,0.66)" stroke-width="2.2" stroke-linecap="round"/>
        <line x1="118" y1="124" x2="54" y2="214" stroke="rgba(255,255,255,0.66)" stroke-width="2.2" stroke-linecap="round"/>
        <line x1="54" y1="214" x2="-10" y2="124" stroke="rgba(255,255,255,0.66)" stroke-width="2.2" stroke-linecap="round"/>
        <line x1="-10" y1="124" x2="54" y2="34" stroke="rgba(255,255,255,0.66)" stroke-width="2.2" stroke-linecap="round"/>
        <line x1="34" y1="58" x2="74" y2="58" stroke="rgba(243,178,106,0.96)" stroke-width="8" stroke-linecap="round"/>
        <line x1="54" y1="124" x2="34" y2="58" stroke="rgba(125,179,255,0.94)" stroke-width="3.6" stroke-linecap="round"/>
        <line x1="54" y1="124" x2="74" y2="58" stroke="rgba(125,179,255,0.94)" stroke-width="3.6" stroke-linecap="round"/>
        <!-- <line x1="66" y1="154" x2="52" y2="106" stroke="rgba(243,178,106,0.94)" stroke-width="4" stroke-linecap="round"/>
        <line x1="66" y1="154" x2="78" y2="106" stroke="rgba(243,178,106,0.94)" stroke-width="4" stroke-linecap="round"/>
        <circle cx="66" cy="154" r="6" fill="rgba(243,178,106,0.96)"/> -->
        <text x="10" y="46" text-anchor="middle" fill="rgba(247,239,225,0.82)" font-family="IBM Plex Sans JP, sans-serif" font-size="13">特異点</text>
        <text x="0" y="135" fill="rgba(247,239,225,0.76)" font-family="IBM Plex Sans JP, sans-serif" font-size="13">地平線</text>
        <text x="54" y="244" text-anchor="middle" fill="rgba(247,239,225,0.72)" font-family="IBM Plex Sans JP, sans-serif" font-size="13">内側の未来は特異点へ</text>
    </g>
</svg>